<svg id="bxs-dashboard" xmlns="http://www.w3.org/2000/svg" width="12.887" height="12.887" viewBox="0 0 12.887 12.887">
  <path id="Path_566" data-name="Path 566" d="M14.931,14.931V11.065h-3.15v3.866h3.15m-7.159,0V13.213H4.622v1.718h3.15m0-5.727V4.622H4.622V9.2h3.15m7.159-2.148V4.622h-3.15V7.056h3.15M15.5,16.22h-4.3a.716.716,0,0,1-.716-.716V10.493a.716.716,0,0,1,.716-.716h4.3a.716.716,0,0,1,.716.716V15.5A.716.716,0,0,1,15.5,16.22Zm-7.159,0h-4.3a.716.716,0,0,1-.716-.716V12.64a.716.716,0,0,1,.716-.716h4.3a.716.716,0,0,1,.716.716V15.5A.716.716,0,0,1,8.345,16.22Zm0-5.727h-4.3a.716.716,0,0,1-.716-.716V4.049a.716.716,0,0,1,.716-.716h4.3a.716.716,0,0,1,.716.716V9.777A.716.716,0,0,1,8.345,10.493ZM15.5,8.345h-4.3a.716.716,0,0,1-.716-.716V4.049a.716.716,0,0,1,.716-.716h4.3a.716.716,0,0,1,.716.716v3.58A.716.716,0,0,1,15.5,8.345Z" transform="translate(-3.333 -3.333)" fill="#fff"/>
</svg>
