<svg id="Component_69_1" data-name="Component 69 – 1" xmlns="http://www.w3.org/2000/svg" xmlns:xlink="http://www.w3.org/1999/xlink" width="22" height="22" viewBox="0 0 22 22">
  <defs>
    <clipPath id="clip-path">
      <rect id="Rectangle_2695" data-name="Rectangle 2695" width="22" height="22" transform="translate(474 165)" fill="#fff"/>
    </clipPath>
  </defs>
  <g id="Mask_Group_16" data-name="Mask Group 16" transform="translate(-474 -165)" clip-path="url(#clip-path)">
    <g id="_04-Profit" data-name="04-Profit" transform="translate(471 162)">
      <path id="Path_579" data-name="Path 579" d="M6.034,23.1a7.208,7.208,0,0,0,3.034-.56v1.7c0,.2-1.043.759-3.034.759S3,24.436,3,24.241v-1.7a7.208,7.208,0,0,0,3.034.56ZM3,19.888v1.7c0,.2,1.043.759,3.034.759s3.034-.564,3.034-.759v-1.7a7.208,7.208,0,0,1-3.034.56A7.208,7.208,0,0,1,3,19.888Zm3.034-1.716c-1.991,0-3.034.564-3.034.759s1.043.759,3.034.759,3.034-.564,3.034-.759S8.025,18.172,6.034,18.172Zm4.931,4.371v1.7c0,.2,1.043.759,3.034.759s3.034-.564,3.034-.759v-1.7A7.208,7.208,0,0,1,14,23.1,7.208,7.208,0,0,1,10.966,22.544Zm0-2.655v1.7c0,.2,1.043.759,3.034.759s3.034-.564,3.034-.759v-1.7a7.208,7.208,0,0,1-3.034.56A7.208,7.208,0,0,1,10.966,19.888Zm0-2.655v1.7c0,.2,1.043.759,3.034.759s3.034-.564,3.034-.759v-1.7a7.208,7.208,0,0,1-3.034.56A7.208,7.208,0,0,1,10.966,17.233ZM14,15.517c-1.991,0-3.034.564-3.034.759s1.043.759,3.034.759,3.034-.564,3.034-.759S15.991,15.517,14,15.517Zm4.931-1.9c0,.2,1.043.759,3.034.759S25,13.816,25,13.621s-1.043-.759-3.034-.759S18.931,13.426,18.931,13.621Zm0,8.923v1.7c0,.2,1.043.759,3.034.759S25,24.436,25,24.241v-1.7a7.208,7.208,0,0,1-3.034.56A7.208,7.208,0,0,1,18.931,22.544Zm0-2.655v1.7c0,.2,1.043.759,3.034.759S25,21.781,25,21.586v-1.7a7.208,7.208,0,0,1-3.034.56A7.208,7.208,0,0,1,18.931,19.888Zm0-2.655v1.7c0,.2,1.043.759,3.034.759S25,19.126,25,18.931v-1.7a7.208,7.208,0,0,1-3.034.56A7.208,7.208,0,0,1,18.931,17.233Zm0-2.655v1.7c0,.2,1.043.759,3.034.759S25,16.471,25,16.276v-1.7a7.208,7.208,0,0,1-3.034.56,7.208,7.208,0,0,1-3.034-.56ZM11.724,8.69l2.72,2.72a1.517,1.517,0,0,0,2.146,0l5.755-5.755V7.931a.379.379,0,0,0,.379.379h.759a.379.379,0,0,0,.379-.379V3.759A.759.759,0,0,0,23.1,3H18.931a.379.379,0,0,0-.379.379v.759a.379.379,0,0,0,.379.379h2.276l-5.69,5.69L12.8,7.487a1.517,1.517,0,0,0-2.146,0L4.406,13.732a.379.379,0,0,0,0,.536l.6.6a.379.379,0,0,0,.536,0Z" fill="#fff"/>
    </g>
  </g>
</svg>
