<svg id="Component_81_1" data-name="Component 81 – 1" xmlns="http://www.w3.org/2000/svg" xmlns:xlink="http://www.w3.org/1999/xlink" width="13" height="13" viewBox="0 0 13 13">
  <defs>
    <clipPath id="clip-path">
      <rect id="Rectangle_2648" data-name="Rectangle 2648" width="13" height="13" transform="translate(0 2.495)" fill="#404040"/>
    </clipPath>
  </defs>
  <g id="Mask_Group_5182" data-name="Mask Group 5182" transform="translate(0 -2.495)" clip-path="url(#clip-path)">
    <g id="__TEMP__SVG__" transform="translate(-0.813 1.683)">
      <g id="Group_37412" data-name="Group 37412">
        <path id="Path_40640" data-name="Path 40640" d="M7.353,4.469A2.844,2.844,0,1,0,10.2,7.313,2.826,2.826,0,0,0,7.353,4.469Zm0,4.875A2.031,2.031,0,1,1,9.384,7.313,2.012,2.012,0,0,1,7.353,9.344Z" fill="#404040"/>
        <path id="Path_40641" data-name="Path 40641" d="M13.325,5.972l-1.137-.366L11.944,5l.569-1.056a.683.683,0,0,0-.122-.772l-.975-.975a.683.683,0,0,0-.772-.122l-1.056.569L8.978,2.4,8.613,1.259A.66.66,0,0,0,8,.813H6.622a.57.57,0,0,0-.569.488L5.688,2.438a1.8,1.8,0,0,0-.65.244L3.981,2.112a.683.683,0,0,0-.772.122l-.975.975a.683.683,0,0,0-.122.772L2.641,5c-.081.2-.163.447-.244.65l-1.138.366a.66.66,0,0,0-.447.609V8a.647.647,0,0,0,.488.609l1.137.366.244.609-.569,1.056a.683.683,0,0,0,.122.772l.975.975a.683.683,0,0,0,.772.122l1.056-.569.609.244.366,1.178a.66.66,0,0,0,.609.447H8a.66.66,0,0,0,.609-.447l.366-1.178.609-.244,1.056.569a.683.683,0,0,0,.772-.122l.975-.975a.683.683,0,0,0,.122-.772l-.569-1.056.244-.609,1.178-.366A.66.66,0,0,0,13.813,8V6.622a.7.7,0,0,0-.488-.65ZM13,7.881l-1.462.447-.041.2-.366.853-.122.2.731,1.341-.812.813-1.341-.731-.2.122a3.857,3.857,0,0,1-.853.366l-.2.041L7.881,13H6.744L6.3,11.538l-.2-.041-.853-.366-.2-.122L3.7,11.741l-.812-.812.731-1.341-.122-.2a3.857,3.857,0,0,1-.366-.853l-.041-.2L1.625,7.881V6.744l1.381-.406.081-.2a3.448,3.448,0,0,1,.366-.894l.122-.2L2.884,3.7,3.7,2.884,5,3.616l.2-.122a3.448,3.448,0,0,1,.894-.366l.2-.081.447-1.422H7.881l.447,1.422.2.081a3.857,3.857,0,0,1,.853.366l.2.122,1.341-.731.813.812-.731,1.341.122.2a3.857,3.857,0,0,1,.366.853l.041.2L13,6.744Z" fill="#404040"/>
      </g>
    </g>
  </g>
</svg>
