<svg xmlns="http://www.w3.org/2000/svg" xmlns:xlink="http://www.w3.org/1999/xlink" width="117.817" height="65.971" viewBox="0 0 117.817 65.971">
  <defs>
    <linearGradient id="linear-gradient" x1="-0.408" y1="-0.542" x2="0.5" y2="1" gradientUnits="objectBoundingBox">
      <stop offset="0" stop-color="#0c73ff"/>
      <stop offset="1" stop-color="#fff"/>
    </linearGradient>
    <linearGradient id="linear-gradient-2" x1="0.5" x2="0.5" y2="1" gradientUnits="objectBoundingBox">
      <stop offset="0" stop-color="#0c73ff"/>
      <stop offset="1" stop-color="#2d5ca8"/>
    </linearGradient>
    <filter id="Path_2" x="0" y="9.708" width="46.165" height="56.263" filterUnits="userSpaceOnUse">
      <feOffset dy="3" input="SourceAlpha"/>
      <feGaussianBlur stdDeviation="3" result="blur"/>
      <feFlood flood-color="#3572f4"/>
      <feComposite operator="in" in2="blur"/>
      <feComposite in="SourceGraphic"/>
    </filter>
  </defs>
  <g id="Component_62_1" data-name="Component 62 – 1" transform="translate(9)">
    <g id="Group_6379" data-name="Group 6379" transform="translate(0 0)">
      <text id="restige_" data-name="restige " transform="translate(41.817 24.519)" fill="#3572f4" font-size="17" font-family="Qualy-Bold, Qualy" font-weight="700"><tspan x="0" y="0">restige </tspan></text>
      <text id="Travel" transform="translate(41.817 47.15)" fill="#3572f4" font-size="17" font-family="Poppins-Light, Poppins" font-weight="300"><tspan x="0" y="0">Travel</tspan></text>
      <g id="Group_6378" data-name="Group 6378" transform="translate(0)">
        <path id="Path_9" data-name="Path 9" d="M13.342,26.685c7.369,0,25.363-8.261,25.363-8.261S20.711,0,13.342,0a13.342,13.342,0,1,0,0,26.685Z" transform="translate(40.044 9.563) rotate(111)" fill="#3572f4"/>
        <path id="Path_10" data-name="Path 10" d="M8.583,17.165c4.74,0,16.315-5.314,16.315-5.314S13.323,0,8.583,0a8.583,8.583,0,1,0,0,17.165Z" transform="matrix(-0.259, 0.966, -0.966, -0.259, 32.165, 11.499)" fill="url(#linear-gradient)"/>
        <g id="Group_6" data-name="Group 6" transform="translate(6.06 53.971) rotate(-100)">
          <path id="Path_1" data-name="Path 1" d="M2.549.706,0,1.09,1.683,0Z" transform="translate(29.578 20.511)" fill="#0c73ff" fill-rule="evenodd"/>
          <g transform="matrix(-0.17, 0.98, -0.98, -0.17, 55.77, -5.46)" filter="url(#Path_2)">
            <path id="Path_2-2" data-name="Path 2" d="M25.259,15.424C10.526,5.606,2.816,6.346,0,7.241A36.094,36.094,0,0,1,4,0,43,43,0,0,1,25.4,12.524a46.916,46.916,0,0,1,3.265,3.819l.615-1.056.237,1.892,1.412,1.185,1.33-3.484.209,4.775,2.063,1.731.368,1.061-1.066-.172L31.807,20.49,30.3,19.16l-1.127-.995-.306-.223-1.772.119.832-.8q-1.371-.977-2.668-1.841" transform="translate(15.06 53.97) rotate(-100)" fill-rule="evenodd" fill="url(#linear-gradient-2)"/>
          </g>
        </g>
      </g>
    </g>
  </g>
</svg>
