<svg id="Component_63_1" data-name="Component 63 – 1" xmlns="http://www.w3.org/2000/svg" xmlns:xlink="http://www.w3.org/1999/xlink" width="32" height="32" viewBox="0 0 32 32">
  <defs>
    <clipPath id="clip-path">
      <path id="Path_153" data-name="Path 153" d="M16,0A16,16,0,1,0,32,16,16,16,0,0,0,16,0Z" transform="translate(0 0.001)" fill="none"/>
    </clipPath>
  </defs>
  <g id="Group_136" data-name="Group 136" clip-path="url(#clip-path)">
    <path id="Path_136" data-name="Path 136" d="M32,15.9A16,16,0,1,1,16,0,15.952,15.952,0,0,1,32,15.9" transform="translate(0 0)" fill="#fe4155"/>
    <path id="Path_137" data-name="Path 137" d="M15.387,40.816c-.189.1-.426.069-.6.206a1.449,1.449,0,0,0-.739.072,22.355,22.355,0,0,0-3.706,1.764,3.325,3.325,0,0,1-1.034.437,11.443,11.443,0,0,1-1.749-2.548A13.525,13.525,0,0,1,5.948,33.58a13.935,13.935,0,0,1,6.136-11.067c.034.238.057.477.1.712.076.379.063.4-.3.288-.236-.072-.313-.02-.243.2a5.547,5.547,0,0,0,.925,1.907,1.459,1.459,0,0,1,.347.806,4.337,4.337,0,0,0,.165.786,7.744,7.744,0,0,1,.373,1.738.868.868,0,0,0-.894.942,2.742,2.742,0,0,0,.3,1.157l.052.063h0c.117.444.214.893.356,1.328a.852.852,0,0,0,.762.651c0,.367,0,.733-.01,1.1a17.4,17.4,0,0,0,.214,3.225,11.19,11.19,0,0,0,1.149,3.4" transform="translate(-4.216 -16.055)" fill="#fe4155"/>
    <path id="Path_138" data-name="Path 138" d="M79.049,39.316c-.076.1-.136.215-.264.262-1.166-.557-2.251-1.271-3.453-1.758-.367-.148-.739-.282-1.107-.427a1.171,1.171,0,0,0-.625-.075l-.042-.014c-.028-.008-.057-.016-.086-.022l-.087-.019-.109-.023-.081-.021-.039-.013a.59.59,0,0,1-.185-.1l-.034-.032c.084-.174.169-.346.252-.52a12.852,12.852,0,0,0,1.1-5.107,19.9,19.9,0,0,0-.031-2.024.979.979,0,0,0,.8-.731c.128-.427.2-.869.353-1.289a3.2,3.2,0,0,0,.329-.916.951.951,0,0,0-.745-1.242,5.335,5.335,0,0,1,.228-1.186,8.567,8.567,0,0,0,.407-3.271,2.4,2.4,0,0,0-1.279-2.214,2.11,2.11,0,0,1-1.115-1.251A12.864,12.864,0,0,1,76.809,19.4a14.136,14.136,0,0,1,2.24,19.917" transform="translate(-51.89 -12.355)" fill="#fe4155"/>
    <path id="Path_139" data-name="Path 139" d="M42.106,20.714a3.2,3.2,0,0,1-.329.916c-.157.42-.225.863-.353,1.289a.979.979,0,0,1-.8.732c-.027-.34-.05-.681-.084-1.021-.011-.108,0-.231-.1-.312a2.381,2.381,0,0,0,.115-.746c.018-.074.042-.147.055-.221a5.367,5.367,0,0,0,.057-1.732,4.477,4.477,0,0,0-.4-1.018,1.9,1.9,0,0,1-.309-1.238c.018-.231.009-.463.009-.7a2.528,2.528,0,0,0-.6-1.651.777.777,0,0,0-1.182-.234,10.989,10.989,0,0,1-4,1.243,10.386,10.386,0,0,1-2.9-.148.154.154,0,0,0-.011-.041,8.014,8.014,0,0,1-1.789-.558.389.389,0,0,0-.6.307,5.115,5.115,0,0,0-.131,1.6,2.691,2.691,0,0,1-.027.775c-.083.4-.368.7-.485,1.073-.056.183-.074.441-.2.519s-.357-.049-.542-.084a7.712,7.712,0,0,0-.373-1.738,4.361,4.361,0,0,1-.165-.786,1.454,1.454,0,0,0-.347-.806,5.55,5.55,0,0,1-.925-1.908c-.07-.215.007-.267.243-.2.36.109.373.091.3-.288-.047-.235-.069-.474-.1-.712a5.919,5.919,0,0,1,.484-2.614c.16-.374.391-.426.688-.152A2.492,2.492,0,0,0,28.688,11a2.18,2.18,0,0,0,1.073-.183c.865-.334,1.683-.775,2.56-1.078.118-.041.24-.07.36-.105a5.95,5.95,0,0,1,6.864,1.855.548.548,0,0,0,.057.065A2.109,2.109,0,0,0,40.717,12.8,2.4,2.4,0,0,1,42,15.015a8.58,8.58,0,0,1-.407,3.271,5.315,5.315,0,0,0-.228,1.186.951.951,0,0,1,.745,1.242" transform="translate(-18.26 -6.581)" fill="#42416b"/>
    <path id="Path_140" data-name="Path 140" d="M38.43,89.38a1.788,1.788,0,0,1-.444.568,15.108,15.108,0,0,1-3.723,2.559,14.092,14.092,0,0,1-4.253,1.56,11.34,11.34,0,0,1-1.489.209.187.187,0,0,0-.156.057H26.152a6.511,6.511,0,0,0-1.105-.169,14.451,14.451,0,0,1-3.52-1.027,6.85,6.85,0,0,1-1.088-.539,13.544,13.544,0,0,1-2.565-1.764,14,14,0,0,1-1.61-1.317c-.032-.034-.407-.4-.43-.445a6.5,6.5,0,0,0,1.552-.247,22.61,22.61,0,0,1,3.708-1.764,1.444,1.444,0,0,1,.739-.072,1.566,1.566,0,0,1,.462.536,9.983,9.983,0,0,0,2.571,2.929c0,.017.009.034.012.049.139.089.277.181.416.267a3.771,3.771,0,0,0,2.277.648,4.3,4.3,0,0,0,2.306-.935,10.573,10.573,0,0,0,2.652-3.063,1.142,1.142,0,0,1,.447-.436,1.172,1.172,0,0,1,.626.075c.366.146.739.281,1.1.427,1.2.488,2.56,1.337,3.726,1.893" transform="translate(-11.264 -62.023)" fill="#fef4ed"/>
    <path id="Path_141" data-name="Path 141" d="M47.145,89.943c0-.017-.009-.033-.013-.05.385-.153.516-.541.767-.818.1.031.2.064.3.093a3.877,3.877,0,0,0,1.5.261,5.626,5.626,0,0,0,3.151-1.246,7.445,7.445,0,0,0,1.726-2c.184.179.441.162.663.241a1.113,1.113,0,0,0-.446.435,10.587,10.587,0,0,1-2.653,3.065,4.317,4.317,0,0,1-2.305.935,3.791,3.791,0,0,1-2.277-.649c-.139-.087-.276-.177-.415-.266" transform="translate(-33.532 -61.461)" fill="#faac6e"/>
    <path id="Path_142" data-name="Path 142" d="M40.766,65.807a5.121,5.121,0,0,1-.422,1.061,3.882,3.882,0,0,1-1.5-.261c-.1-.029-.2-.062-.3-.093a9.642,9.642,0,0,1-1.324-.758,7.459,7.459,0,0,1-1.872-2.1,11.19,11.19,0,0,1-1.149-3.4,17.4,17.4,0,0,1-.214-3.225c.005-.367.006-.733.01-1.1a3.5,3.5,0,0,0,.052-.368,5.883,5.883,0,0,1,.113-1.018,8.328,8.328,0,0,0,.769,2,3.415,3.415,0,0,0,1.179,1.282c.137.082.231.1.323-.067a4.2,4.2,0,0,1,.538-.674,2.972,2.972,0,0,1,1.451-.691c-.025.1-.047.2-.076.305a1.445,1.445,0,0,0,.4,1.6c.083.074.191.139.2.271l-.291.02a.724.724,0,0,0-.288.014.908.908,0,0,0-.567.32c-.08.129.119.284.156.441a1.1,1.1,0,0,0,.042.108,1.63,1.63,0,0,0,1.168,1.071,4.378,4.378,0,0,0,1.18.135,4.72,4.72,0,0,1-.467.65,1.78,1.78,0,0,0,.008,1.982,6.7,6.7,0,0,1,.523.758,2.578,2.578,0,0,1,.36,1.737" transform="translate(-24.175 -38.9)" fill="#36355e"/>
    <path id="Path_143" data-name="Path 143" d="M37.225,86.321a7.472,7.472,0,0,0,1.872,2.1,9.7,9.7,0,0,0,1.324.758c-.251.277-.382.665-.767.818a9.96,9.96,0,0,1-2.57-2.927,1.6,1.6,0,0,0-.463-.538c.178-.137.415-.1.6-.206" transform="translate(-26.054 -61.56)" fill="#fb985c"/>
    <path id="Path_144" data-name="Path 144" d="M57.123,58.221a12.862,12.862,0,0,1-1.1,5.107c-.083.174-.168.347-.252.52h0c-.03.046-.06.093-.091.139s-.06.093-.091.139-.061.091-.093.137L55.4,64.4c-.068.1-.138.19-.209.283l-.089.113-.1.128-.108.126c-.037.042-.073.082-.111.122s-.058.063-.088.093l-.005.005c-.016.017-.031.033-.048.05s-.059.06-.089.089-.064.062-.1.092l-.035.033c-.012.011-.023.022-.035.032-.034.032-.069.063-.105.092l-.057.048-.058.048-.118.093A5.619,5.619,0,0,1,50.9,67.1a5.12,5.12,0,0,0,.422-1.061,2.577,2.577,0,0,0-.36-1.737,6.7,6.7,0,0,0-.523-.758,1.78,1.78,0,0,1-.008-1.982,4.747,4.747,0,0,0,.467-.65c.116,0,.232,0,.348-.012a1.9,1.9,0,0,0,1.942-1.353,1.3,1.3,0,0,1,.1-.209c.187-.359.13-.464-.29-.52a1.65,1.65,0,0,0-.232,0,5.229,5.229,0,0,1-1.609-.3.489.489,0,0,0-.364.008A4.993,4.993,0,0,1,49.5,58.8c-.008-.133-.117-.2-.2-.271a1.446,1.446,0,0,1-.4-1.6c.029-.1.051-.2.076-.305l.468-.045a.659.659,0,0,0,.472.093.394.394,0,0,1,.35.09,1.237,1.237,0,0,0,1.445,0c.091-.059.178-.13.292-.1a.7.7,0,0,0,.529-.086,2.9,2.9,0,0,1,2.288,1.183c.241.314.249.323.549.047A5.434,5.434,0,0,0,56.9,54.865c.1.081.092.2.1.312.033.34.057.681.084,1.021a19.9,19.9,0,0,1,.031,2.024" transform="translate(-34.728 -39.127)" fill="#42416b"/>
    <path id="Path_145" data-name="Path 145" d="M44.519,51.231l0,0h0Zm0,0,0,0h0Zm0,0,0,0h0Z" transform="translate(-31.673 -36.536)" fill="#f7b98e"/>
    <path id="Path_146" data-name="Path 146" d="M42.981,33a4.479,4.479,0,0,0-.4-1.018,1.9,1.9,0,0,1-.309-1.238c.018-.231.009-.463.009-.7a2.529,2.529,0,0,0-.6-1.651.777.777,0,0,0-1.182-.234,10.989,10.989,0,0,1-4,1.243,10.375,10.375,0,0,1-2.9-.148.16.16,0,0,0-.011-.041A8,8,0,0,1,31.8,28.66a.389.389,0,0,0-.6.307,5.113,5.113,0,0,0-.131,1.6,2.69,2.69,0,0,1-.027.775c-.083.4-.368.7-.485,1.073-.056.183-.074.441-.2.519s-.357-.049-.542-.084a.868.868,0,0,0-.894.942,2.737,2.737,0,0,0,.3,1.157l.052.063h0c.117.444.213.893.356,1.328a.852.852,0,0,0,.762.651,3.5,3.5,0,0,0,.052-.368,5.88,5.88,0,0,1,.113-1.018,8.34,8.34,0,0,0,.769,2,3.42,3.42,0,0,0,1.179,1.282c.137.082.231.1.323-.067a4.163,4.163,0,0,1,.538-.674,2.968,2.968,0,0,1,1.451-.691l.468-.045a.657.657,0,0,0,.472.093.4.4,0,0,1,.35.09,1.237,1.237,0,0,0,1.445,0c.091-.059.178-.13.292-.1a.7.7,0,0,0,.529-.086A2.9,2.9,0,0,1,40.664,38.6c.242.314.249.323.549.047A5.431,5.431,0,0,0,42.754,35.7a2.381,2.381,0,0,0,.115-.746c.018-.073.042-.146.055-.221A5.369,5.369,0,0,0,42.981,33m-9.555,1.66,0,0,.005,0Z" transform="translate(-20.577 -19.961)" fill="#f7b98e"/>
    <path id="Path_147" data-name="Path 147" d="M51.574,68.622a1.639,1.639,0,0,1,.232,0c.42.056.476.16.29.519a1.226,1.226,0,0,0-.1.209A1.9,1.9,0,0,1,50.056,70.7c-.116.007-.232.008-.348.012a4.372,4.372,0,0,1-1.18-.135,1.627,1.627,0,0,1-1.167-1.071c-.012-.036-.033-.07-.042-.107-.036-.158-.235-.312-.156-.442a.913.913,0,0,1,.567-.32.72.72,0,0,1,.288-.014,1.3,1.3,0,0,0,1.119.434,1.9,1.9,0,0,1,1.322,0,1.25,1.25,0,0,0,1.116-.438m-1.746,1.039v0H49.6a.315.315,0,0,0-.349.306.323.323,0,0,0,.286.373,1.784,1.784,0,0,0,.545-.007.321.321,0,0,0,.267-.36.312.312,0,0,0-.287-.308,1.293,1.293,0,0,0-.231,0" transform="translate(-33.54 -48.934)" fill="#f7b98e"/>
    <path id="Path_148" data-name="Path 148" d="M53.729,67.815a1.249,1.249,0,0,1-1.116.437,1.9,1.9,0,0,0-1.322,0,1.3,1.3,0,0,1-1.119-.433l.291-.02a4.98,4.98,0,0,0,1.292-.273.489.489,0,0,1,.363-.007,5.226,5.226,0,0,0,1.61.3" transform="translate(-35.695 -48.128)" fill="#f8ab6d"/>
    <path id="Path_149" data-name="Path 149" d="M44.524,51.234h0l0,0Z" transform="translate(-31.672 -36.536)" fill="#fcf0e8"/>
    <path id="Path_150" data-name="Path 150" d="M44.519,51.231l0,0h0Z" transform="translate(-31.672 -36.536)" fill="#46446b"/>
    <path id="Path_151" data-name="Path 151" d="M55.011,72.245a1.294,1.294,0,0,1,.231,0,.312.312,0,0,1,.287.308.321.321,0,0,1-.267.36,1.783,1.783,0,0,1-.545.007.323.323,0,0,1-.286-.373.315.315,0,0,1,.349-.306h.231Z" transform="translate(-38.723 -51.519)" fill="#faac6e"/>
    <path id="Path_152" data-name="Path 152" d="M52.535,102.42l-.794,1.077,1.228,2.871,1.083-2.943-.936-.987Z" transform="translate(-36.81 -73.042)" fill="#42416b"/>
  </g>
</svg>
