<svg id="Component_75_1" data-name="Component 75 – 1" xmlns="http://www.w3.org/2000/svg" xmlns:xlink="http://www.w3.org/1999/xlink" width="13" height="13" viewBox="0 0 13 13">
  <defs>
    <clipPath id="clip-path">
      <rect id="Rectangle_2651" data-name="Rectangle 2651" width="13" height="13" transform="translate(0 0)" fill="#404040"/>
    </clipPath>
  </defs>
  <g id="Mask_Group_11" data-name="Mask Group 11" transform="translate(0 0)" clip-path="url(#clip-path)">
    <g id="__TEMP__SVG__" transform="translate(1.123 2.107)">
      <path id="Path_566" data-name="Path 566" d="M10.05,8.686a2.044,2.044,0,0,1,2.044,2.044v1.022H11.073M8.517,6.577a2.045,2.045,0,0,0,0-3.96M6.984,4.6A2.044,2.044,0,1,1,4.94,2.553,2.044,2.044,0,0,1,6.984,4.6ZM2.9,8.686H6.984A2.044,2.044,0,0,1,9.028,10.73v1.022H.851V10.73A2.044,2.044,0,0,1,2.9,8.686Z" transform="translate(-0.851 -2.553)" fill="none" stroke="#404040" stroke-linecap="round" stroke-linejoin="round" stroke-width="1.3"/>
    </g>
  </g>
</svg>
